<?xml version="1.0" encoding="UTF-8"?>
<svg version="1.1" viewBox="0 0 2048 2048" width="3264" height="3264" xmlns="http://www.w3.org/2000/svg">
<path transform="translate(840,71)" d="m0 0h73l32 2 36 4 35 6 31 7 40 12 34 13 30 14 25 14 24 16 13 10 11 9 14 12 27 27 9 11 12 15 13 19 12 20 12 23 9 20 10 27 9 30 7 33 5 36 2 27 1 40-1 29-3 35-6 37-8 34-9 30-11 30-12 27-10 20-16 27-11 16-9 12-8 10-12 14-18 18-11 9-14 11-17 11-12 7-19 8-16 5-5 1 42 1 32 3 28 5 26 7 20 7 20 9 28 15 22 14 19 14 10 8 14 12 16 15 15 16 12 14 12 16 12 17 12 19 12 21 12 24 12 29 10 28 11 36 8 33 6 34 3 27 1 16v68l-3 34-5 35-6 29-6 24-7 22-8 23-11 26-8 16-12 23-11 18-8 12-13 18-11 14-12 14-14 15-9 9-8 7-14 12-17 13-17 12-21 13-22 12-16 8-23 10-26 9-23 7-34 8-36 6-37 4-270 19-315 22h-13l-2-21-39-557-32-458-38-544-15-214v-14l1-1 415-29z"/>
<path transform="translate(669,348)" d="m0 0h74l36 3 35 4 22 4 32 7 22 6 29 10 20 8 15 8 16 8 14 9 14 10 13 11 6 5 3 3v2h2l5 6v2h2l12 18 8 14 7 24 1 5v30l-1 11-7 21-5 12-11 19-13 17-8 10h-2l-2 4-13 13-7 6h-2v2l-8 7-18 13-14 10-23 14-36 19-19 8-11 5-15 6-16 6-11 4-17 5-19 6-28 7-32 7-26 5-28 4h-7l-2-10-36-293-15-123v-6l12-2 20-2z" fill="#fff"/>
<path transform="translate(1071,1311)" d="m0 0h9l7 5 6 10 4 11 5 26 3 21 4 47 3 49 2 44 1 29-3 3-23 12-16 8-18 8-23 9-24 8-23 6-19 4-30 3h-25l-30-4-15-4-19-7-21-11-15-10-14-12-19-19-7-9-12-16-7-11-10-16-8-15-10-21-11-27-3-8-7-5v-2l8-4 5 9 26 13 25 10 16 5 29 6 11 1 21 1 22-2 20-4 24-8 21-10 22-14 18-14 11-9 10-10h2l2-4h2l2-4 16-16 7-8 4-5 12-12 7-8h2l2-4 11-10z" fill="#fff"/>
<path transform="translate(1016,922)" d="m0 0h12l8 5 6 8 13 25 12 22 10 19 2 6v7l-2 6-7 8-10 3-9-2-7-5-6-9h-2l-2 5-12 14-7 8-18 18-11 9-10 8-16 11-22 13-28 13-31 10-22 5-31 4h-42l-21-2-27-4-31-8-31-11-27-12-20-10-17-10-5-2-2 6-6 10-8 6h-12l-6-3-5-4-3-5v-12l5-13 17-36 12-26 8-9 4-2h12l8 4 5 7 1 4v8l-4 11-4 9 1 4 17 10 16 8 21 10 20 8 26 8 26 6 23 3 13 1h32l28-4 21-5 21-7 23-10 25-15 13-10 9-7 4-4h2v-2l8-7 7-7 1-2h2l2-4 11-14 9-14 5-6-2-6-7-13-1-4v-11l6-9z" fill="#fff"/>
</svg>
